<?xml version="1.0" encoding="UTF-8" standalone="no"?>
<!-- Created with Inkscape (http://www.inkscape.org/) -->

<svg
   xmlns:dc="http://purl.org/dc/elements/1.1/"
   xmlns:cc="http://creativecommons.org/ns#"
   xmlns:rdf="http://www.w3.org/1999/02/22-rdf-syntax-ns#"
   xmlns:svg="http://www.w3.org/2000/svg"
   xmlns="http://www.w3.org/2000/svg"
   xmlns:xlink="http://www.w3.org/1999/xlink"
   xmlns:sodipodi="http://sodipodi.sourceforge.net/DTD/sodipodi-0.dtd"
   xmlns:inkscape="http://www.inkscape.org/namespaces/inkscape"
   width="660.43878"
   height="637.36182"
   id="svg2"
   version="1.1"
   inkscape:version="0.47 r22583"
   sodipodi:docname="New document 1">
  <defs
     id="defs4">
    <inkscape:perspective
       sodipodi:type="inkscape:persp3d"
       inkscape:vp_x="0 : 526.18109 : 1"
       inkscape:vp_y="0 : 1000 : 0"
       inkscape:vp_z="744.09448 : 526.18109 : 1"
       inkscape:persp3d-origin="372.04724 : 350.78739 : 1"
       id="perspective10" />
    <inkscape:perspective
       id="perspective2824"
       inkscape:persp3d-origin="0.5 : 0.33333333 : 1"
       inkscape:vp_z="1 : 0.5 : 1"
       inkscape:vp_y="0 : 1000 : 0"
       inkscape:vp_x="0 : 0.5 : 1"
       sodipodi:type="inkscape:persp3d" />
  </defs>
  <sodipodi:namedview
     id="base"
     pagecolor="#ffffff"
     bordercolor="#666666"
     borderopacity="1.0"
     inkscape:pageopacity="0.0"
     inkscape:pageshadow="2"
     inkscape:zoom="1.0935704"
     inkscape:cx="330.21939"
     inkscape:cy="318.68091"
     inkscape:document-units="px"
     inkscape:current-layer="layer2"
     showgrid="false"
     inkscape:window-width="1280"
     inkscape:window-height="963"
     inkscape:window-x="-9"
     inkscape:window-y="-9"
     inkscape:window-maximized="1" />
  <metadata
     id="metadata7">
    <rdf:RDF>
      <cc:Work
         rdf:about="">
        <dc:format>image/svg+xml</dc:format>
        <dc:type
           rdf:resource="http://purl.org/dc/dcmitype/StillImage" />
        <dc:title></dc:title>
      </cc:Work>
    </rdf:RDF>
  </metadata>
  <g
     inkscape:label="Layer 1"
     inkscape:groupmode="layer"
     id="layer1"
     sodipodi:insensitive="true"
     style="display:none"
     transform="translate(-23.584077,-150.82931)">
    <image
       y="112.07524"
       x="30.494377"
       id="image2826"
       height="736.11115"
       width="693.47919"
       xlink:href="file:///C:/Users/Bujung/Pictures/pan2.jpg" />
  </g>
  <g
     inkscape:groupmode="layer"
     id="layer2"
     inkscape:label="Layer"
     style="display:inline"
     transform="translate(-23.584077,-150.82931)">
    <g
       transform="matrix(-1,0,0,1,558.13226,-18.118144)"
       id="g2888">
      <path
         style="fill:#333333;stroke:#000000;stroke-width:1px;stroke-linecap:butt;stroke-linejoin:miter;stroke-opacity:1"
         d="m 212.51073,359.72065 c 0,0 13.5886,-6.41684 17.74068,-6.79431 4.15207,-0.37746 9.05907,-0.75492 13.96607,-0.37746 4.907,0.37746 9.05907,1.50985 12.07876,3.01969 3.01969,1.50985 23.02514,8.68161 24.53499,9.05908 1.50984,0.37746 12.07876,3.01969 13.21114,5.66192 1.13239,2.64222 1.13239,18.87306 -0.75492,20.38291 -1.88731,1.50984 -3.39715,10.94638 -19.25053,2.64223 -15.85337,-8.30415 -62.28112,-34.34898 -61.52619,-33.59406 z"
         id="path2890" />
      <path
         style="fill:#ffffff;stroke:#000000;stroke-width:1px;stroke-linecap:butt;stroke-linejoin:miter;stroke-opacity:1"
         d="m 288.2579,601.82576 c 0,0 -38.43438,18.14957 -42.70487,35.23152 -4.27049,17.08195 -13.87909,69.39542 -3.20287,80.07164 10.67622,10.67622 12.81146,30.96103 34.1639,34.1639 21.35244,3.20286 52.31347,9.6086 61.92207,13.87908 9.6086,4.27049 6.40573,8.54098 6.40573,19.2172 0,10.67621 2.13524,22.42006 10.67622,21.35243 8.54097,-1.06762 22.42006,-20.28481 22.42006,-20.28481 0,0 48.04298,0 55.51633,-9.6086 7.47336,-9.6086 58.71921,-46.97536 67.26018,-64.05731 8.54098,-17.08195 29.89341,-58.7192 30.96104,-81.13926 1.06762,-22.42006 0,-132.38511 0,-145.19657 0,-12.81147 5.33811,-93.95073 0,-115.30317 -5.33811,-21.35243 -10.67622,-105.69456 -24.55531,-125.97937 -13.87908,-20.28482 -44.84012,-38.43439 -44.84012,-38.43439 0,0 8.54098,-16.01433 0,-21.35244 -8.54097,-5.33811 -22.42005,-14.9467 -29.89341,-10.67622 -7.47335,4.27049 -9.60859,9.6086 -12.81146,12.81146 -3.20286,3.20287 -5.33811,9.6086 -5.33811,9.6086 0,0 -35.23152,0 -57.65158,16.01433 -22.42006,16.01433 -41.63725,25.62292 -44.84012,34.1639 -3.20286,8.54097 -11.74384,23.48768 -18.14957,30.96103 -6.40573,7.47336 -35.23152,27.75817 -37.36676,32.02866 -2.13525,4.27049 -4.27049,12.81146 -4.27049,12.81146 0,0 0.15913,5.33811 1.22675,11.74384 0.29035,1.74213 5.22751,10.87201 15.94964,15.95879 10.68707,5.07014 27.16078,6.09648 26.50873,8.28703 -2.59066,8.70329 -37.14986,-5.71323 -37.14986,-5.71323 0,0 -3.78874,3.10104 0.853,9.39144 4.88584,6.62119 32.71286,13.44656 28.21152,18.59435 -2.02575,2.31667 -10.51555,4.43998 -18.536,1.58822 -12.04408,-4.2824 -24.53713,-15.01032 -24.53713,-15.01032 0,0 1.06762,1.06762 -8.54098,-1.06762 -9.6086,-2.13525 -23.48768,-5.33811 -29.89341,-3.20287 -6.40573,2.13525 -14.94671,-1.06762 -20.28482,10.67622 -5.33811,11.74384 -8.54097,29.89341 -7.47335,37.36677 1.06762,7.47335 21.35244,23.48768 27.75817,33.09627 6.40573,9.6086 38.43439,32.02866 38.43439,32.02866 0,0 12.81146,3.20286 17.08195,12.81146 4.27048,9.6086 14.9467,24.5553 22.42005,30.96103 7.47336,6.40574 22.42006,17.08195 22.42006,17.08195 0,0 -9.60859,12.81147 -13.87908,24.55531 -4.27049,11.74384 -3.20287,39.50201 -4.27049,40.56963 z"
         id="path2892"
         sodipodi:nodetypes="csssssscsssssscssscsssscssscssscssssscsscsc" />
      <path
         style="fill:#1a1a1a;stroke:none"
         d="m 284.9833,381.99086 c 0,0 -0.75492,-6.03938 3.01969,-6.03938 3.77462,0 3.39716,0.75492 13.96607,2.26477 10.56892,1.50985 20.00545,2.64223 22.64768,5.28446 2.64223,2.64223 2.64223,4.907 3.77462,9.05907 1.13238,4.15208 18.4956,0.75492 1.50984,9.05907 -16.98576,8.30415 -19.62799,9.05907 -25.66737,6.41684 -6.03938,-2.64222 -20.76037,-12.83368 -20.38291,-15.85337 0.37746,-3.01969 1.88731,-10.56892 1.13238,-10.19146 z"
         id="path2894" />
      <path
         style="fill:#000000;stroke:#000000;stroke-width:1px;stroke-linecap:butt;stroke-linejoin:miter;stroke-opacity:1"
         d="m 313.88083,278.33633 c 0,0 -19.2172,14.94671 -16.01433,28.82579 3.20286,13.87909 7.47335,29.89342 12.81146,29.89342 5.33811,0 9.6086,4.27048 14.94671,-6.40573 5.33811,-10.67622 7.47335,-12.81147 4.27048,-25.62293 -3.20286,-12.81146 -2.13524,-18.14957 -3.20286,-24.5553 -1.06762,-6.40573 -4.27049,-10.67622 -8.54098,-7.47335 -4.27048,3.20286 -3.20286,5.3381 -4.27048,5.3381 z"
         id="path2896" />
      <path
         style="fill:#000000;stroke:#000000;stroke-width:1px;stroke-linecap:butt;stroke-linejoin:miter;stroke-opacity:1"
         d="m 388.61436,262.32201 c 0,0 10.67622,10.67622 16.01432,16.01432 5.33811,5.33811 19.2172,24.55531 19.2172,24.55531 0,0 8.54097,4.27048 12.81146,1.06762 4.27049,-3.20287 18.14957,-35.23152 16.01433,-43.7725 -2.13525,-8.54097 -12.81146,-27.75817 -24.5553,-28.82579 -11.74384,-1.06762 -11.74384,-10.67622 -20.28482,1.06762 -8.54097,11.74385 -19.21719,29.89342 -19.21719,29.89342 z"
         id="path2898" />
      <path
         style="fill:#000000;stroke:#000000;stroke-width:1.07458353px;stroke-linecap:butt;stroke-linejoin:miter;stroke-opacity:1"
         d="m 412.91378,196.00985 53.82841,12.76425 c 0,0 4.02348,-8.57809 2.76583,-16.95041 -1.25765,-8.37231 -3.77294,-14.65154 -15.0918,-16.74463 -11.31885,-2.09307 -21.38004,-8.37231 -27.66829,-4.18615 -6.28825,4.18615 -8.80355,5.2327 -12.5765,11.51194 -3.77295,6.27923 1.25764,13.605 -1.25765,13.605 z"
         id="path2900"
         sodipodi:nodetypes="ccssssc" />
      <path
         style="fill:#000000;stroke:#000000;stroke-width:1px;stroke-linecap:butt;stroke-linejoin:miter;stroke-opacity:1"
         d="m 532.74331,473.71113 1.06762,-69.39542 c 0,0 -4.27049,-10.67621 -18.14957,-10.67621 -13.87909,0 -17.08195,3.20286 -28.82579,2.13524 -11.74384,-1.06762 -17.08195,-6.40573 -29.89341,-12.81146 -12.81147,-6.40573 -12.81147,-18.14957 -27.75817,-17.08195 -14.94671,1.06762 -27.75817,-5.33811 -41.63726,-3.20287 -13.87908,2.13525 -8.54097,-4.27049 -21.35243,7.47335 -12.81146,11.74385 -18.14957,9.6086 -23.48768,20.28482 -5.33811,10.67622 0,16.01433 -8.54098,18.14957 -8.54097,2.13525 -6.40573,5.33811 -11.74384,-3.20286 -5.33811,-8.54098 9.6086,-12.81147 -7.47335,-9.6086 -17.08195,3.20286 -13.87909,8.54097 -18.14957,0 -4.27049,-8.54098 -9.6086,-13.87908 -16.01433,-13.87908 -6.40573,0 -9.6086,3.20286 -14.94671,-2.13525 -5.33811,-5.33811 -1.06762,-9.6086 -10.67622,-10.67622 -9.60859,-1.06762 -16.01432,-2.13524 -16.01432,-2.13524 0,0 -13.87909,-8.54098 -25.62293,-7.47335 -11.74384,1.06762 -13.56638,-4.40002 -18.90449,2.00571 -5.33811,6.40573 -11.49591,7.4086 -12.56353,13.81433 -1.06762,6.40573 -3.7635,17.27623 -3.7635,26.88483 0,9.6086 0,13.87908 5.33811,19.21719 5.33811,5.33811 10.23399,11.74384 15.5721,17.08195 5.33811,5.33811 15.12988,19.03402 19.40037,23.30451 4.27049,4.27049 22.67911,14.06226 26.9496,15.12988 4.27049,1.06762 1.3692,4.71272 6.70731,6.84796 5.33811,2.13524 3.08446,-1.44509 8.42257,8.1635 5.33811,9.6086 4.10863,10.73666 10.98892,17.3299 7.25502,6.95233 12.87622,12.69304 19.28195,18.03115 6.40573,5.33811 10.11558,1.94096 13.31845,7.27907 3.20287,5.33811 -1.06762,9.6086 11.74384,14.94671 12.81146,5.33811 14.94671,12.81146 33.09628,9.60859 18.14957,-3.20286 45.90774,1.06763 59.78682,-8.54097 13.87909,-9.6086 13.87909,-7.47335 25.62293,-12.81146 11.74384,-5.33811 34.1639,-8.54098 45.90774,-16.01433 11.74384,-7.47335 55.51633,-46.97536 52.31347,-48.04299 z"
         id="path2902"
         sodipodi:nodetypes="ccsssssssssssssscssssssssssssssssssc" />
      <path
         style="fill:#000000;stroke:#000000;stroke-width:1px;stroke-linecap:butt;stroke-linejoin:miter;stroke-opacity:1"
         d="m 291.46077,602.89338 c 0,0 19.21719,-2.13524 30.96103,4.27049 11.74384,6.40573 19.21719,12.81146 24.5553,20.28481 5.33811,7.47336 13.87909,10.67622 17.08195,26.69055 3.20287,16.01433 12.81147,56.58396 9.6086,67.26018 -3.20286,10.67621 3.20287,13.87908 -8.54097,23.48768 -11.74384,9.60859 -9.6086,12.81146 -22.42006,13.87908 -12.81147,1.06762 -23.48768,-3.20286 -37.36677,-3.20286 -13.87908,0 -21.35244,1.06762 -35.23152,-7.47336 -13.87908,-8.54097 -8.54097,-6.40573 -18.14957,-13.87908 -9.6086,-7.47335 -16.01433,-9.6086 -19.21719,-21.35244 -3.20287,-11.74384 6.40573,-55.51634 7.47335,-64.05731 1.06762,-8.54097 -2.13525,-14.94671 9.6086,-25.62292 11.74384,-10.67622 8.54097,-12.81147 23.48768,-17.08195 14.9467,-4.27049 18.14957,-4.27049 18.14957,-3.20287 z"
         id="path2904" />
      <path
         style="fill:#000000;stroke:#000000;stroke-width:1px;stroke-linecap:butt;stroke-linejoin:miter;stroke-opacity:1"
         d="m 253.02638,319.43978 c 0,0 12.27765,4.27048 11.21003,6.93954 -1.06762,2.66905 -0.53381,5.33811 -4.27049,4.27049 -3.73667,-1.06763 -4.8043,-0.53382 -5.87192,-3.20287 -1.06762,-2.66905 -0.53381,-6.93954 -1.06762,-8.00716 z"
         id="path2906" />
      <path
         style="fill:#ffffff;stroke:#000000;stroke-width:1px;stroke-linecap:butt;stroke-linejoin:miter;stroke-opacity:1"
         d="m 316.54988,289.54636 c 2.66906,2.13525 5.87192,4.27049 5.87192,6.93955 0,2.66905 -3.20286,2.13524 -3.20286,2.13524 l -1.60144,-4.8043 -1.06762,-4.27049 z"
         id="path2908" />
      <path
         style="fill:#000000;stroke:none"
         d="m 256.9568,340.65885 1.41548,11.60693 14.53226,5.56756 15.00409,3.20842 6.51121,-1.32112 1.32111,-1.8873 -1.79294,-1.03802 -11.13511,-2.7366 -13.30551,-3.96334 -10.19146,-7.17176 -2.35913,-2.26477 z"
         id="path2910" />
      <path
         id="path2912"
         d="m 231.7279,659.74401 c 0,0 10.01411,-1.11268 16.13384,2.22536 6.11973,3.33803 10.0141,6.67607 12.7958,10.57044 2.78169,3.89438 7.23241,5.56339 8.90143,13.90848 1.66902,8.34509 6.67607,29.48598 5.00705,35.04938 -1.66901,5.56338 1.66902,7.2324 -4.45071,12.23946 -6.11973,5.00705 -5.00706,6.67607 -11.68312,7.23241 -6.67608,0.55634 -12.23947,-1.66902 -19.47188,-1.66902 -7.23241,0 -11.12679,0.55634 -18.35919,-3.89438 -7.23241,-4.45071 -4.45072,-3.33803 -9.45777,-7.2324 -5.00705,-3.89438 -8.34509,-5.00706 -10.0141,-11.12679 -1.66902,-6.11973 3.33803,-28.92964 3.89437,-33.38035 0.55634,-4.45071 -1.11268,-7.78875 5.00705,-13.35214 6.11973,-5.56339 4.45071,-6.67608 12.23947,-8.90143 7.78874,-2.22536 9.45776,-2.22536 9.45776,-1.66902 z"
         style="fill:#000000;stroke:#000000;stroke-width:0.52110136px;stroke-linecap:butt;stroke-linejoin:miter;stroke-opacity:1" />
    </g>
    <g
       id="g2914"
       transform="translate(149.47469,-18.118144)">
      <path
         id="path2916"
         d="m 212.51073,359.72065 c 0,0 13.5886,-6.41684 17.74068,-6.79431 4.15207,-0.37746 9.05907,-0.75492 13.96607,-0.37746 4.907,0.37746 9.05907,1.50985 12.07876,3.01969 3.01969,1.50985 23.02514,8.68161 24.53499,9.05908 1.50984,0.37746 12.07876,3.01969 13.21114,5.66192 1.13239,2.64222 1.13239,18.87306 -0.75492,20.38291 -1.88731,1.50984 -3.39715,10.94638 -19.25053,2.64223 -15.85337,-8.30415 -62.28112,-34.34898 -61.52619,-33.59406 z"
         style="fill:#333333;stroke:#000000;stroke-width:1px;stroke-linecap:butt;stroke-linejoin:miter;stroke-opacity:1" />
      <path
         sodipodi:nodetypes="csssssscsssssscssscsssscssscssscssssscsscsc"
         id="path2918"
         d="m 288.2579,601.82576 c 0,0 -38.43438,18.14957 -42.70487,35.23152 -4.27049,17.08195 -13.87909,69.39542 -3.20287,80.07164 10.67622,10.67622 12.81146,30.96103 34.1639,34.1639 21.35244,3.20286 52.31347,9.6086 61.92207,13.87908 9.6086,4.27049 6.40573,8.54098 6.40573,19.2172 0,10.67621 2.13524,22.42006 10.67622,21.35243 8.54097,-1.06762 22.42006,-20.28481 22.42006,-20.28481 0,0 48.04298,0 55.51633,-9.6086 7.47336,-9.6086 58.71921,-46.97536 67.26018,-64.05731 8.54098,-17.08195 29.89341,-58.7192 30.96104,-81.13926 1.06762,-22.42006 0,-132.38511 0,-145.19657 0,-12.81147 5.33811,-93.95073 0,-115.30317 -5.33811,-21.35243 -10.67622,-105.69456 -24.55531,-125.97937 -13.87908,-20.28482 -44.84012,-38.43439 -44.84012,-38.43439 0,0 8.54098,-16.01433 0,-21.35244 -8.54097,-5.33811 -22.42005,-14.9467 -29.89341,-10.67622 -7.47335,4.27049 -9.60859,9.6086 -12.81146,12.81146 -3.20286,3.20287 -5.33811,9.6086 -5.33811,9.6086 0,0 -35.23152,0 -57.65158,16.01433 -22.42006,16.01433 -41.63725,25.62292 -44.84012,34.1639 -3.20286,8.54097 -11.74384,23.48768 -18.14957,30.96103 -6.40573,7.47336 -35.23152,27.75817 -37.36676,32.02866 -2.13525,4.27049 -4.27049,12.81146 -4.27049,12.81146 0,0 0.15913,5.33811 1.22675,11.74384 0.29035,1.74213 5.22751,10.87201 15.94964,15.95879 10.68707,5.07014 27.16078,6.09648 26.50873,8.28703 -2.59066,8.70329 -37.14986,-5.71323 -37.14986,-5.71323 0,0 -3.78874,3.10104 0.853,9.39144 4.88584,6.62119 32.71286,13.44656 28.21152,18.59435 -2.02575,2.31667 -10.51555,4.43998 -18.536,1.58822 -12.04408,-4.2824 -24.53713,-15.01032 -24.53713,-15.01032 0,0 1.06762,1.06762 -8.54098,-1.06762 -9.6086,-2.13525 -23.48768,-5.33811 -29.89341,-3.20287 -6.40573,2.13525 -14.94671,-1.06762 -20.28482,10.67622 -5.33811,11.74384 -8.54097,29.89341 -7.47335,37.36677 1.06762,7.47335 21.35244,23.48768 27.75817,33.09627 6.40573,9.6086 38.43439,32.02866 38.43439,32.02866 0,0 12.81146,3.20286 17.08195,12.81146 4.27048,9.6086 14.9467,24.5553 22.42005,30.96103 7.47336,6.40574 22.42006,17.08195 22.42006,17.08195 0,0 -9.60859,12.81147 -13.87908,24.55531 -4.27049,11.74384 -3.20287,39.50201 -4.27049,40.56963 z"
         style="fill:#ffffff;stroke:#000000;stroke-width:1px;stroke-linecap:butt;stroke-linejoin:miter;stroke-opacity:1" />
      <path
         id="path2920"
         d="m 284.9833,381.99086 c 0,0 -0.75492,-6.03938 3.01969,-6.03938 3.77462,0 3.39716,0.75492 13.96607,2.26477 10.56892,1.50985 20.00545,2.64223 22.64768,5.28446 2.64223,2.64223 2.64223,4.907 3.77462,9.05907 1.13238,4.15208 18.4956,0.75492 1.50984,9.05907 -16.98576,8.30415 -19.62799,9.05907 -25.66737,6.41684 -6.03938,-2.64222 -20.76037,-12.83368 -20.38291,-15.85337 0.37746,-3.01969 1.88731,-10.56892 1.13238,-10.19146 z"
         style="fill:#1a1a1a;stroke:none" />
      <path
         id="path2922"
         d="m 313.88083,278.33633 c 0,0 -19.2172,14.94671 -16.01433,28.82579 3.20286,13.87909 7.47335,29.89342 12.81146,29.89342 5.33811,0 9.6086,4.27048 14.94671,-6.40573 5.33811,-10.67622 7.47335,-12.81147 4.27048,-25.62293 -3.20286,-12.81146 -2.13524,-18.14957 -3.20286,-24.5553 -1.06762,-6.40573 -4.27049,-10.67622 -8.54098,-7.47335 -4.27048,3.20286 -3.20286,5.3381 -4.27048,5.3381 z"
         style="fill:#000000;stroke:#000000;stroke-width:1px;stroke-linecap:butt;stroke-linejoin:miter;stroke-opacity:1" />
      <path
         id="path2924"
         d="m 388.61436,262.32201 c 0,0 10.67622,10.67622 16.01432,16.01432 5.33811,5.33811 19.2172,24.55531 19.2172,24.55531 0,0 8.54097,4.27048 12.81146,1.06762 4.27049,-3.20287 18.14957,-35.23152 16.01433,-43.7725 -2.13525,-8.54097 -12.81146,-27.75817 -24.5553,-28.82579 -11.74384,-1.06762 -11.74384,-10.67622 -20.28482,1.06762 -8.54097,11.74385 -19.21719,29.89342 -19.21719,29.89342 z"
         style="fill:#000000;stroke:#000000;stroke-width:1px;stroke-linecap:butt;stroke-linejoin:miter;stroke-opacity:1" />
      <path
         sodipodi:nodetypes="ccssssc"
         id="path2926"
         d="m 412.91378,196.00985 53.82841,12.76425 c 0,0 4.02348,-8.57809 2.76583,-16.95041 -1.25765,-8.37231 -3.77294,-14.65154 -15.0918,-16.74463 -11.31885,-2.09307 -21.38004,-8.37231 -27.66829,-4.18615 -6.28825,4.18615 -8.80355,5.2327 -12.5765,11.51194 -3.77295,6.27923 1.25764,13.605 -1.25765,13.605 z"
         style="fill:#000000;stroke:#000000;stroke-width:1.07458353px;stroke-linecap:butt;stroke-linejoin:miter;stroke-opacity:1" />
      <path
         sodipodi:nodetypes="ccsssssssssssssscssssssssssssssssssc"
         id="path2928"
         d="m 532.74331,473.71113 1.06762,-69.39542 c 0,0 -4.27049,-10.67621 -18.14957,-10.67621 -13.87909,0 -17.08195,3.20286 -28.82579,2.13524 -11.74384,-1.06762 -17.08195,-6.40573 -29.89341,-12.81146 -12.81147,-6.40573 -12.81147,-18.14957 -27.75817,-17.08195 -14.94671,1.06762 -27.75817,-5.33811 -41.63726,-3.20287 -13.87908,2.13525 -8.54097,-4.27049 -21.35243,7.47335 -12.81146,11.74385 -18.14957,9.6086 -23.48768,20.28482 -5.33811,10.67622 0,16.01433 -8.54098,18.14957 -8.54097,2.13525 -6.40573,5.33811 -11.74384,-3.20286 -5.33811,-8.54098 9.6086,-12.81147 -7.47335,-9.6086 -17.08195,3.20286 -13.87909,8.54097 -18.14957,0 -4.27049,-8.54098 -9.6086,-13.87908 -16.01433,-13.87908 -6.40573,0 -9.6086,3.20286 -14.94671,-2.13525 -5.33811,-5.33811 -1.06762,-9.6086 -10.67622,-10.67622 -9.60859,-1.06762 -16.01432,-2.13524 -16.01432,-2.13524 0,0 -13.87909,-8.54098 -25.62293,-7.47335 -11.74384,1.06762 -13.56638,-4.40002 -18.90449,2.00571 -5.33811,6.40573 -11.49591,7.4086 -12.56353,13.81433 -1.06762,6.40573 -3.7635,17.27623 -3.7635,26.88483 0,9.6086 0,13.87908 5.33811,19.21719 5.33811,5.33811 10.23399,11.74384 15.5721,17.08195 5.33811,5.33811 15.12988,19.03402 19.40037,23.30451 4.27049,4.27049 22.67911,14.06226 26.9496,15.12988 4.27049,1.06762 1.3692,4.71272 6.70731,6.84796 5.33811,2.13524 3.08446,-1.44509 8.42257,8.1635 5.33811,9.6086 4.10863,10.73666 10.98892,17.3299 7.25502,6.95233 12.87622,12.69304 19.28195,18.03115 6.40573,5.33811 10.11558,1.94096 13.31845,7.27907 3.20287,5.33811 -1.06762,9.6086 11.74384,14.94671 12.81146,5.33811 14.94671,12.81146 33.09628,9.60859 18.14957,-3.20286 45.90774,1.06763 59.78682,-8.54097 13.87909,-9.6086 13.87909,-7.47335 25.62293,-12.81146 11.74384,-5.33811 34.1639,-8.54098 45.90774,-16.01433 11.74384,-7.47335 55.51633,-46.97536 52.31347,-48.04299 z"
         style="fill:#000000;stroke:#000000;stroke-width:1px;stroke-linecap:butt;stroke-linejoin:miter;stroke-opacity:1" />
      <path
         id="path2930"
         d="m 291.46077,602.89338 c 0,0 19.21719,-2.13524 30.96103,4.27049 11.74384,6.40573 19.21719,12.81146 24.5553,20.28481 5.33811,7.47336 13.87909,10.67622 17.08195,26.69055 3.20287,16.01433 12.81147,56.58396 9.6086,67.26018 -3.20286,10.67621 3.20287,13.87908 -8.54097,23.48768 -11.74384,9.60859 -9.6086,12.81146 -22.42006,13.87908 -12.81147,1.06762 -23.48768,-3.20286 -37.36677,-3.20286 -13.87908,0 -21.35244,1.06762 -35.23152,-7.47336 -13.87908,-8.54097 -8.54097,-6.40573 -18.14957,-13.87908 -9.6086,-7.47335 -16.01433,-9.6086 -19.21719,-21.35244 -3.20287,-11.74384 6.40573,-55.51634 7.47335,-64.05731 1.06762,-8.54097 -2.13525,-14.94671 9.6086,-25.62292 11.74384,-10.67622 8.54097,-12.81147 23.48768,-17.08195 14.9467,-4.27049 18.14957,-4.27049 18.14957,-3.20287 z"
         style="fill:#000000;stroke:#000000;stroke-width:1px;stroke-linecap:butt;stroke-linejoin:miter;stroke-opacity:1" />
      <path
         id="path2932"
         d="m 253.02638,319.43978 c 0,0 12.27765,4.27048 11.21003,6.93954 -1.06762,2.66905 -0.53381,5.33811 -4.27049,4.27049 -3.73667,-1.06763 -4.8043,-0.53382 -5.87192,-3.20287 -1.06762,-2.66905 -0.53381,-6.93954 -1.06762,-8.00716 z"
         style="fill:#000000;stroke:#000000;stroke-width:1px;stroke-linecap:butt;stroke-linejoin:miter;stroke-opacity:1" />
      <path
         id="path2934"
         d="m 316.54988,289.54636 c 2.66906,2.13525 5.87192,4.27049 5.87192,6.93955 0,2.66905 -3.20286,2.13524 -3.20286,2.13524 l -1.60144,-4.8043 -1.06762,-4.27049 z"
         style="fill:#ffffff;stroke:#000000;stroke-width:1px;stroke-linecap:butt;stroke-linejoin:miter;stroke-opacity:1" />
      <path
         id="path2936"
         d="m 256.9568,340.65885 1.41548,11.60693 14.53226,5.56756 15.00409,3.20842 6.51121,-1.32112 1.32111,-1.8873 -1.79294,-1.03802 -11.13511,-2.7366 -13.30551,-3.96334 -10.19146,-7.17176 -2.35913,-2.26477 z"
         style="fill:#000000;stroke:none" />
      <path
         style="fill:#000000;stroke:#000000;stroke-width:0.52110136px;stroke-linecap:butt;stroke-linejoin:miter;stroke-opacity:1"
         d="m 231.7279,659.74401 c 0,0 10.01411,-1.11268 16.13384,2.22536 6.11973,3.33803 10.0141,6.67607 12.7958,10.57044 2.78169,3.89438 7.23241,5.56339 8.90143,13.90848 1.66902,8.34509 6.67607,29.48598 5.00705,35.04938 -1.66901,5.56338 1.66902,7.2324 -4.45071,12.23946 -6.11973,5.00705 -5.00706,6.67607 -11.68312,7.23241 -6.67608,0.55634 -12.23947,-1.66902 -19.47188,-1.66902 -7.23241,0 -11.12679,0.55634 -18.35919,-3.89438 -7.23241,-4.45071 -4.45072,-3.33803 -9.45777,-7.2324 -5.00705,-3.89438 -8.34509,-5.00706 -10.0141,-11.12679 -1.66902,-6.11973 3.33803,-28.92964 3.89437,-33.38035 0.55634,-4.45071 -1.11268,-7.78875 5.00705,-13.35214 6.11973,-5.56339 4.45071,-6.67608 12.23947,-8.90143 7.78874,-2.22536 9.45776,-2.22536 9.45776,-1.66902 z"
         id="path2938" />
    </g>
  </g>
</svg>
